<svg width="20" height="20" viewBox="0 0 20 20" fill="none" xmlns="http://www.w3.org/2000/svg">
<path fill-rule="evenodd" clip-rule="evenodd" d="M11.5732 2.01074C14.8953 2.05318 16.5567 2.07418 17.6758 3.08105C17.7912 3.18494 17.9054 3.3012 18.0078 3.41797C19.0001 4.54984 19 6.24303 19 9.62891L18.9971 11.0801C18.98 14.2545 18.8433 15.9869 17.748 17.2275C17.6239 17.3681 17.47 17.5235 17.3301 17.6484L17.0596 17.8701C15.6737 18.9094 13.7744 18.9195 10.1992 18.9395L10 18.9404L9.79688 18.9395C5.98708 18.9178 4.08193 18.9069 2.67188 17.6494C2.60131 17.5865 2.52721 17.5159 2.45508 17.4434L2.25 17.2246C1.1567 15.9846 1.01905 14.254 1.00195 11.083L1 9.63281C1 6.24801 0.999986 4.55506 1.99023 3.42383C2.09361 3.30574 2.2085 3.18893 2.3252 3.08398C3.30334 2.20448 4.6988 2.07809 7.25977 2.03027L8.43066 2.0127C8.98878 2.00522 9.52056 2.00037 10 2L11.5732 2.01074ZM9.59125 3.4015C9.03494 3.40401 8.75679 3.40526 8.58201 3.58083C8.40723 3.7564 8.40723 4.03632 8.40723 4.59615V16.3418C8.40723 16.902 8.40723 17.1821 8.58153 17.3576C8.75583 17.533 9.03477 17.5349 9.59265 17.5387C9.66281 17.5392 9.73381 17.5396 9.80566 17.54H10.1914C12.137 17.5292 13.4539 17.5188 14.4658 17.373C15.4231 17.2351 15.9617 16.9926 16.3975 16.6035C16.496 16.5155 16.6118 16.3998 16.6992 16.3008C17.0718 15.8786 17.3185 15.3153 17.4551 14.2617C17.5972 13.1651 17.5996 11.7264 17.5996 9.62891C17.5996 7.89953 17.5979 6.73312 17.4873 5.85254C17.3814 5.00914 17.1947 4.6142 16.9551 4.34082C16.8891 4.26553 16.8137 4.18905 16.7393 4.12207C16.4653 3.87554 16.0769 3.6868 15.2559 3.57129C14.3943 3.45013 13.2527 3.43283 11.5547 3.41113C10.9995 3.40404 10.4733 3.40003 10.001 3.40039C9.87092 3.40049 9.73358 3.40086 9.59125 3.4015ZM7.00195 4.66338C7.00195 4.07955 7.00195 3.78763 6.81421 3.61009C6.62647 3.43255 6.34291 3.44839 5.7758 3.48008C5.3896 3.50166 5.05042 3.53136 4.74609 3.57422C3.92382 3.69006 3.53499 3.87939 3.26172 4.125C3.18654 4.19261 3.11058 4.26962 3.04395 4.3457C2.80494 4.61873 2.61843 5.01383 2.5127 5.85742C2.40238 6.73776 2.40039 7.90415 2.40039 9.63281C2.40039 11.728 2.40312 13.1651 2.54492 14.2607C2.68126 15.3138 2.92774 15.8768 3.2998 16.2988C3.38797 16.3988 3.50397 16.5157 3.60352 16.6045C4.039 16.9929 4.57767 17.2352 5.53418 17.373C5.60595 17.3834 5.67926 17.393 5.75423 17.402C6.31708 17.4693 6.59851 17.503 6.80023 17.3239C7.00195 17.1449 7.00195 16.8442 7.00195 16.2427V4.66338Z" fill="#161A33"/>
</svg>
