<svg width="200" height="30" viewBox="0 0 200 30" fill="none" xmlns="http://www.w3.org/2000/svg">
<path d="M2 12.7275C0.89543 12.7275 0 13.623 0 14.7275C0 15.8321 0.89543 16.7275 2 16.7275V14.7275V12.7275ZM198.914 16.1418C199.695 15.3607 199.695 14.0944 198.914 13.3133L186.186 0.585403C185.405 -0.195645 184.139 -0.195645 183.358 0.585403C182.577 1.36645 182.577 2.63278 183.358 3.41383L194.672 14.7275L183.358 26.0412C182.577 26.8223 182.577 28.0886 183.358 28.8697C184.139 29.6507 185.405 29.6507 186.186 28.8697L198.914 16.1418ZM2 14.7275V16.7275H197.5V14.7275V12.7275H2V14.7275Z" fill="#FA3448"/>
</svg>
