<svg width="20" height="20" viewBox="0 0 20 20" fill="none" xmlns="http://www.w3.org/2000/svg">
<path d="M18.0635 17.6026C18.568 17.6334 18.9705 18.0355 19.001 18.5401C19.0028 18.5702 19.0029 18.6058 19.0029 18.6768C19.0029 18.6983 19.0025 18.7098 19.002 18.7188C18.9926 18.8701 18.872 18.9909 18.7207 19.0001H1.7002C1.31375 19.0001 1.00025 18.6873 1 18.3009C1 17.9143 1.3136 17.6007 1.7002 17.6007L18.0635 17.6026Z" fill="#0C1126"/>
<path fill-rule="evenodd" clip-rule="evenodd" d="M9.45312 2.19735C11.0516 0.598881 13.6446 0.598976 15.2432 2.19735C16.8415 3.79588 16.8407 6.38792 15.2422 7.98642L9.04785 14.1808C8.2566 14.972 7.73674 15.5082 7.06055 15.8009C6.38426 16.0934 5.63807 16.1057 4.51953 16.1407L3.01367 16.1876C2.71991 16.1968 2.42522 16.2077 2.18457 16.1817C1.92409 16.1535 1.60704 16.0717 1.35254 15.8028C1.09853 15.534 1.03425 15.2137 1.02051 14.9522C1.00789 14.7104 1.03499 14.4161 1.06055 14.1231L1.18652 12.6827C1.27611 11.6557 1.3266 10.9708 1.61426 10.3536C1.90207 9.73629 2.39389 9.2566 3.12305 8.52743L9.45312 2.19735ZM14.2529 3.18759C13.2011 2.1359 11.4951 2.13583 10.4434 3.18759L4.11328 9.51767C3.3141 10.3169 3.04217 10.6028 2.88281 10.9444C2.72352 11.2861 2.67925 11.6782 2.58105 12.8038L2.5101 13.6846C2.46845 14.2018 2.44762 14.4603 2.60063 14.6221C2.75364 14.7839 3.01295 14.7774 3.53158 14.7646L4.47559 14.7413C5.7023 14.7029 6.12973 14.6775 6.50391 14.5157C6.8782 14.3538 7.18937 14.0598 8.05762 13.1915L14.2529 6.99716C15.3047 5.9454 15.3046 4.23939 14.2529 3.18759Z" fill="#0C1126"/>
</svg>
