<svg width="20" height="20" viewBox="0 0 20 20" fill="none" xmlns="http://www.w3.org/2000/svg">
<path fill-rule="evenodd" clip-rule="evenodd" d="M10.1504 4.51074C10.4838 4.56152 10.7168 4.77613 10.875 4.96582C11.0504 5.17619 11.2309 5.47521 11.4258 5.79492L11.9024 6.57617C12.1584 6.99621 12.209 7.0584 12.2647 7.09863C12.3209 7.139 12.3984 7.16845 12.878 7.28027L13.7725 7.48926C14.1388 7.57467 14.4804 7.65238 14.7354 7.75293C14.9642 7.84326 15.2429 7.99686 15.3955 8.29883L15.4532 8.4375L15.4883 8.58398C15.5436 8.91847 15.4087 9.20644 15.2764 9.41406C15.1293 9.64491 14.8992 9.90837 14.6534 10.1914L14.0528 10.8828C13.7297 11.2548 13.6861 11.3217 13.6651 11.3857C13.6442 11.4495 13.6403 11.5277 13.6817 12.0176L13.7578 12.9277C13.7893 13.3001 13.8203 13.6479 13.8028 13.9209C13.7847 14.2024 13.7065 14.5686 13.3692 14.8125C13.0329 15.0553 12.6609 15.0166 12.3877 14.9473C12.122 14.8797 11.7991 14.7435 11.4522 14.5986L10.6045 14.2441C10.1507 14.0546 10.071 14.0333 10.001 14.0332C9.93093 14.0332 9.85219 14.0543 9.39749 14.2441L8.54984 14.5986C8.20293 14.7435 7.88006 14.8796 7.61429 14.9473C7.3412 15.0167 6.96926 15.0551 6.63284 14.8125C6.29522 14.5686 6.21735 14.2025 6.19925 13.9209C6.18175 13.6478 6.21274 13.3001 6.24417 12.9277L6.32034 12.0176C6.36165 11.5282 6.35772 11.4495 6.33695 11.3857C6.31598 11.3216 6.2724 11.2549 5.94925 10.8828L5.34866 10.1914C5.10285 9.90837 4.8728 9.64492 4.72562 9.41406C4.57438 9.17674 4.41908 8.83439 4.54886 8.4375L4.60648 8.29883C4.75924 7.99679 5.03781 7.8432 5.26663 7.75293C5.52167 7.65243 5.86324 7.57466 6.22952 7.48926L7.12405 7.28027C7.6043 7.16829 7.68115 7.13914 7.73734 7.09863C7.79292 7.05838 7.84406 6.99543 8.09964 6.57617L8.5762 5.79492C8.77113 5.47516 8.95155 5.17615 9.12698 4.96582C9.30794 4.74896 9.58611 4.5 10.001 4.5L10.1504 4.51074ZM10.001 6.3623C9.77431 6.3626 9.62035 6.61503 9.31253 7.11914L8.95511 7.7041C8.78235 7.98703 8.69552 8.12893 8.56448 8.22363C8.43317 8.31828 8.27013 8.35701 7.94534 8.43262L7.27347 8.58887C6.69478 8.72357 6.40517 8.79085 6.33499 9.00488C6.26499 9.21895 6.45931 9.44224 6.84769 9.88867L7.29788 10.4062C7.51601 10.657 7.62564 10.7833 7.67581 10.9365C7.72582 11.0896 7.71151 11.2551 7.68363 11.585L7.62601 12.2666C7.57634 12.8541 7.55196 13.1479 7.73538 13.2803C7.91896 13.4124 8.19344 13.2987 8.74124 13.0703L9.37698 12.8047C9.68446 12.6765 9.83879 12.6124 10.001 12.6123C10.1633 12.6124 10.3183 12.6764 10.626 12.8047L11.2618 13.0703C11.8095 13.2987 12.0841 13.4126 12.2676 13.2803C12.4507 13.1478 12.4257 12.8538 12.376 12.2666L12.3184 11.585C12.2905 11.255 12.2771 11.0897 12.3272 10.9365C12.3774 10.7833 12.486 10.657 12.7041 10.4062L13.1553 9.88867C13.5435 9.44249 13.7379 9.21887 13.668 9.00488C13.5979 8.79084 13.308 8.72352 12.7295 8.58887L12.0576 8.43262C11.7327 8.35698 11.5698 8.31822 11.4385 8.22363C11.3073 8.12895 11.2207 7.98716 11.0479 7.7041L10.6905 7.11914C10.3825 6.61482 10.2278 6.36252 10.001 6.3623Z" fill="#161A33"/>
<path fill-rule="evenodd" clip-rule="evenodd" d="M10.3008 0.999024C12.1666 0.999023 13.6365 0.998173 14.7832 1.15234C15.95 1.30923 16.8866 1.63849 17.6241 2.37598C18.3616 3.11348 18.6908 4.04998 18.8477 5.2168C19.0019 6.36354 19.001 7.83339 19.001 9.69922V10.2988C19.001 12.1645 19.0019 13.6346 18.8477 14.7812C18.6908 15.9479 18.3615 16.8846 17.6241 17.6221C16.8866 18.3595 15.95 18.6888 14.7832 18.8457C13.6365 18.9999 12.1666 18.999 10.3008 18.999H9.70023C7.83484 18.999 6.3653 18.9998 5.21878 18.8457C4.05209 18.6888 3.11544 18.3594 2.37796 17.6221C1.64055 16.8847 1.31135 15.9479 1.15433 14.7812C1.00005 13.6347 1.0013 12.1652 1.00101 10.2998L1.00003 9.7002C0.999744 7.8344 0.998389 6.36457 1.15238 5.21777C1.3091 4.05077 1.6385 3.11363 2.37601 2.37598C3.11355 1.63832 4.0508 1.30926 5.2178 1.15234C6.36459 0.99818 7.8344 0.999024 9.70023 0.999024H10.3008ZM9.70023 2.39941C7.79489 2.39941 6.43614 2.40037 5.40433 2.53906C4.39258 2.6751 3.8003 2.93209 3.36624 3.36621C2.93227 3.80032 2.67594 4.39262 2.54007 5.4043C2.40154 6.43615 2.40013 7.79483 2.40042 9.7002V10.2998C2.40072 12.2048 2.40223 13.5632 2.54105 14.5947C2.67718 15.6062 2.93419 16.1979 3.3682 16.6318C3.80221 17.0658 4.39389 17.322 5.4053 17.458C6.43687 17.5967 7.79529 17.5986 9.70023 17.5986H10.3008C12.2062 17.5986 13.5649 17.5967 14.5967 17.458C15.6081 17.322 16.1998 17.0658 16.6338 16.6318C17.0678 16.1978 17.3249 15.6062 17.461 14.5947C17.5997 13.563 17.6006 12.2041 17.6006 10.2988V9.69922C17.6006 7.79381 17.5997 6.43509 17.461 5.40332C17.325 4.39171 17.0679 3.80025 16.6338 3.36621C16.1998 2.93218 15.6083 2.67507 14.5967 2.53906C13.5649 2.40035 12.2062 2.39941 10.3008 2.39941H9.70023Z" fill="#161A33"/>
</svg>
