<svg width="20" height="20" viewBox="0 0 20 20" fill="none" xmlns="http://www.w3.org/2000/svg">
<path d="M14.1644 12.5045C14.1644 12.965 14.5375 13.3383 14.9978 13.3382C15.458 13.3382 15.8311 12.9649 15.8311 12.5044L15.8309 5.0027C15.8309 4.54222 15.4578 4.16894 14.9975 4.16895L7.49979 4.16899C7.03955 4.16899 6.66646 4.54228 6.66646 5.00276C6.66646 5.46324 7.03956 5.83654 7.4998 5.83653L12.5787 5.83651C12.7272 5.83651 12.8016 6.01612 12.6966 6.12117L4.40985 14.4123C4.08441 14.7379 4.08441 15.2658 4.40985 15.5914C4.73529 15.917 5.26292 15.917 5.58836 15.5914L13.8798 7.29563C13.9847 7.19058 14.1643 7.26498 14.1643 7.41354L14.1644 12.5045Z" fill="#161A33"/>
</svg>
