<svg width="20" height="20" viewBox="0 0 20 20" fill="none" xmlns="http://www.w3.org/2000/svg">
<path d="M3.20627 3.20567C3.47964 2.93245 3.92317 2.93235 4.19649 3.20567L9.64687 8.65605C9.84214 8.85132 10.1587 8.85132 10.354 8.65605L15.8057 3.20429C16.0791 2.93122 16.522 2.93171 16.7953 3.20498C17.0683 3.47827 17.0683 3.92053 16.7953 4.19382L11.3435 9.64559C11.1483 9.84085 11.1483 10.1574 11.3435 10.3527L16.7939 15.8031C17.0672 16.0764 17.0671 16.5199 16.7939 16.7933C16.5205 17.0667 16.077 17.0667 15.8037 16.7933L10.3533 11.3429C10.158 11.1477 9.84145 11.1477 9.64618 11.3429L4.19442 16.7947C3.92115 17.068 3.47828 17.0684 3.20488 16.7954C2.93152 16.522 2.93152 16.0785 3.20488 15.8052L8.65665 10.3534C8.85191 10.1581 8.85191 9.84154 8.65665 9.64628L3.20627 4.19589C2.9329 3.92253 2.9329 3.47904 3.20627 3.20567Z" fill="#0C1126"/>
</svg>
