<svg width="20" height="20" viewBox="0 0 20 20" fill="none" xmlns="http://www.w3.org/2000/svg">
<g clip-path="url(#clip0_14481_21135)">
<path d="M9.80648 1.29785C10.0314 1.29785 10.1764 1.53627 10.0728 1.73596L9.85361 2.15861C9.68168 2.49014 9.33918 2.69809 8.96572 2.69845C7.30416 2.70004 5.82559 2.71412 4.90482 2.83789C3.89331 2.97394 3.30073 3.23097 2.86673 3.66504C2.43288 4.09913 2.1764 4.69161 2.04056 5.70312C1.90204 6.73497 1.90062 8.09369 1.90091 9.99902V11.2988C1.9012 13.2039 1.90269 14.5631 2.04154 15.5947C2.17766 16.6059 2.43482 17.1979 2.86868 17.6318C3.30262 18.0656 3.89477 18.322 4.90579 18.458C5.93727 18.5967 7.29605 18.5977 9.20072 18.5977H10.4995C12.4046 18.5977 13.7637 18.5966 14.7954 18.458C15.8069 18.322 16.3995 18.0658 16.8335 17.6318C17.1715 17.2939 17.417 16.7219 17.5733 16.0077C17.658 15.6209 17.9363 15.3009 18.2786 15.102C18.3995 15.0317 18.5176 14.9546 18.6328 14.8747C18.8413 14.7303 19.1262 14.8821 19.1083 15.1351C19.0917 15.3704 19.0718 15.599 19.0474 15.7803C18.8905 16.9471 18.5603 17.8836 17.8228 18.6211C17.0853 19.3585 16.1487 19.6888 14.982 19.8457C13.8353 19.9998 12.365 19.998 10.4995 19.998H9.20072C7.33558 19.998 5.86568 19.9998 4.71927 19.8457C3.55283 19.6888 2.61582 19.3593 1.87845 18.6221C1.14114 17.8848 0.811844 16.9478 0.654817 15.7812C0.500512 14.6348 0.501784 13.1651 0.501496 11.2998L0.50052 9.99902C0.500232 8.13325 0.498884 6.66339 0.652864 5.5166C0.809575 4.3497 1.13914 3.41243 1.8765 2.6748C2.61396 1.93723 3.55148 1.60811 4.71829 1.45117C5.865 1.29702 7.33508 1.29785 9.20072 1.29785H9.80648Z" fill="#161A33"/>
<path d="M15.1988 0C17.5735 0 19.4993 1.92516 19.4995 4.2998V10.8867C19.4995 12.6084 18.1031 14.0039 16.3814 14.0039C14.66 14.0035 13.2642 12.6082 13.2642 10.8867V4.53027C13.2642 3.475 14.1201 2.61934 15.1753 2.61914C16.2307 2.61917 17.0865 3.47489 17.0865 4.53027V9.00586C17.0865 9.55814 16.6387 10.0059 16.0865 10.0059H15.9861C15.8204 10.0059 15.6861 9.87154 15.6861 9.70586V4.53027C15.6861 4.24809 15.4575 4.01956 15.1753 4.01953C14.8933 4.01973 14.6646 4.2482 14.6646 4.53027V10.8867C14.6646 11.835 15.4332 12.6041 16.3814 12.6045C17.3299 12.6045 18.0991 11.8352 18.0992 10.8867V4.2998C18.0989 2.69836 16.8003 1.40039 15.1988 1.40039C13.5976 1.40081 12.2996 2.69862 12.2993 4.2998V9.00586C12.2993 9.55814 11.8516 10.0059 11.2993 10.0059H11.199C11.0333 10.0059 10.899 9.87154 10.899 9.70586V4.2998C10.8992 1.92542 12.8244 0.000415094 15.1988 0Z" fill="#161A33"/>
</g>
<defs>
<clipPath id="clip0_14481_21135">
<rect width="20" height="20" fill="white"/>
</clipPath>
</defs>
</svg>
