<svg width="20" height="20" viewBox="0 0 20 20" fill="none" xmlns="http://www.w3.org/2000/svg">
<path d="M6.59961 12.998C7.15186 12.998 7.59956 13.4458 7.59961 13.998C7.59961 14.5503 7.15189 14.998 6.59961 14.998C6.04748 14.9979 5.59961 14.5502 5.59961 13.998C5.59966 13.4459 6.04751 12.9982 6.59961 12.998Z" fill="#161A33"/>
<path d="M10 12.998C10.5522 12.9981 10.9999 13.4458 11 13.998C11 14.5503 10.5523 14.998 10 14.998C9.44771 14.998 9 14.5503 9 13.998C9.00005 13.4458 9.44775 12.998 10 12.998Z" fill="#161A33"/>
<path d="M6.59961 9.59863C7.15189 9.59863 7.59961 10.0463 7.59961 10.5986C7.59935 11.1507 7.15173 11.5986 6.59961 11.5986C6.04764 11.5985 5.59987 11.1506 5.59961 10.5986C5.59961 10.0465 6.04748 9.59881 6.59961 9.59863Z" fill="#161A33"/>
<path d="M10 9.59863C10.5523 9.59867 11 10.0464 11 10.5986C10.9997 11.1507 10.5521 11.5986 10 11.5986C9.44788 11.5986 9.00026 11.1507 9 10.5986C9 10.0463 9.44771 9.59863 10 9.59863Z" fill="#161A33"/>
<path d="M13.4004 9.59863C13.9525 9.59888 14.4004 10.0465 14.4004 10.5986C14.4001 11.1505 13.9523 11.5984 13.4004 11.5986C12.8483 11.5986 12.4007 11.1507 12.4004 10.5986C12.4004 10.0463 12.8481 9.59863 13.4004 9.59863Z" fill="#161A33"/>
<path fill-rule="evenodd" clip-rule="evenodd" d="M11.5732 2.01074C14.8953 2.05318 16.5567 2.07418 17.6758 3.08105C17.7912 3.18494 17.9054 3.3012 18.0078 3.41797C19.0001 4.54984 19 6.24303 19 9.62891L18.9971 11.0801C18.98 14.2545 18.8433 16.0426 17.748 17.2832C17.6239 17.4238 17.47 17.5792 17.3301 17.7041L17.0596 17.9258C15.6737 18.965 13.7744 18.9751 10.1992 18.9951L10 18.9961L9.79688 18.9951C5.98708 18.9735 4.08193 18.9626 2.67188 17.7051C2.60131 17.6421 2.52721 17.5716 2.45508 17.499L2.25 17.2803C1.1567 16.0402 1.01905 14.254 1.00195 11.083L1 9.63281C1 6.24801 0.999986 4.55506 1.99023 3.42383C2.09361 3.30574 2.2085 3.18893 2.3252 3.08398C3.30334 2.20448 4.6988 2.07809 7.25977 2.03027L8.43066 2.0127C8.98878 2.00522 9.52056 2.00037 10 2L11.5732 2.01074ZM3.6069 7C3.04979 7 2.77123 7 2.59594 7.17323C2.42065 7.34645 2.41735 7.62389 2.41077 8.17878C2.40519 8.6488 2.40039 9.18375 2.40039 9.63281C2.40039 11.728 2.40312 13.2208 2.54492 14.3164C2.68126 15.3694 2.92774 15.9325 3.2998 16.3545C3.38797 16.4545 3.50397 16.5713 3.60352 16.6602C4.039 17.0485 4.57767 17.2909 5.53418 17.4287C6.54533 17.5744 7.86162 17.5846 9.80566 17.5957H10.1914C12.137 17.5848 13.4539 17.5745 14.4658 17.4287C15.4231 17.2908 15.9617 17.0482 16.3975 16.6592C16.496 16.5712 16.6118 16.4555 16.6992 16.3564C17.0718 15.9343 17.3185 15.371 17.4551 14.3174C17.5972 13.2208 17.5996 11.7264 17.5996 9.62891C17.5996 9.18115 17.5948 8.64772 17.5893 8.17875C17.5827 7.62388 17.5794 7.34645 17.4041 7.17322C17.2288 7 16.9502 7 16.3931 7H3.6069ZM8.44922 3.41211C6.7504 3.43485 5.60838 3.4528 4.74609 3.57422C3.92382 3.69006 3.53499 3.87939 3.26172 4.125C3.18654 4.19261 3.11058 4.26962 3.04395 4.3457C2.95996 4.44165 2.88249 4.55268 2.81274 4.69295C2.63933 5.04169 2.55263 5.21606 2.66993 5.4054C2.78724 5.59473 3.02254 5.59473 3.49313 5.59473H16.5084C16.9786 5.59473 17.2137 5.59473 17.331 5.40574C17.4484 5.21675 17.362 5.04222 17.1893 4.69317C17.1188 4.55056 17.0403 4.43801 16.9551 4.34082C16.8891 4.26553 16.8137 4.18905 16.7393 4.12207C16.4653 3.87554 16.0769 3.6868 15.2559 3.57129C14.3943 3.45013 13.2527 3.43283 11.5547 3.41113C10.9995 3.40404 10.4733 3.40003 10.001 3.40039C9.52909 3.40075 9.0034 3.40469 8.44922 3.41211Z" fill="#161A33"/>
</svg>
