<svg width="20" height="20" viewBox="0 0 20 20" fill="none" xmlns="http://www.w3.org/2000/svg">
<g clip-path="url(#clip0_14481_21103)">
<path fill-rule="evenodd" clip-rule="evenodd" d="M9.13086 5.7041C9.33188 4.76804 10.6681 4.76804 10.8691 5.7041C11.2918 7.67207 12.8289 9.20924 14.7969 9.63184C15.7328 9.83294 15.7328 11.169 14.7969 11.3701L14.4326 11.4619C12.6407 11.9863 11.2653 13.4529 10.8691 15.2979L10.8467 15.3828C10.5938 16.2054 9.40627 16.2053 9.15332 15.3828L9.13086 15.2979C8.7347 13.453 7.3592 11.9864 5.56738 11.4619L5.20312 11.3701C4.26707 11.1691 4.26707 9.83286 5.20312 9.63184C7.17109 9.20921 8.70823 7.67206 9.13086 5.7041ZM10 7.65234C9.91547 7.65234 9.84461 7.76918 9.70312 8.00293C9.1582 8.9032 8.40222 9.65918 7.50195 10.2041C7.2682 10.3456 7.15136 10.4164 7.15137 10.501C7.15146 10.5855 7.26823 10.6564 7.50195 10.7979C8.4021 11.3426 9.15816 12.0981 9.70312 12.998C9.84463 13.2317 9.91548 13.3486 10 13.3486C10.0845 13.3485 10.1554 13.2317 10.2969 12.998C10.8417 12.0982 11.5972 11.3427 12.4971 10.7979C12.7307 10.6564 12.8476 10.5855 12.8477 10.501C12.8477 10.4165 12.7308 10.3456 12.4971 10.2041C11.5971 9.65913 10.8417 8.90308 10.2969 8.00293C10.1554 7.7692 10.0845 7.65244 10 7.65234Z" fill="#161A33"/>
<path fill-rule="evenodd" clip-rule="evenodd" d="M10.2549 0.0117188C11.5896 0.129837 12.8089 1.14186 15.1035 3.04688L16.1104 3.88281C17.5312 5.06243 18.2419 5.65231 18.6211 6.45996C19.0003 7.26764 19 8.19126 19 10.0381V12.001C19 15.7722 18.9997 17.6575 17.8281 18.8291C16.803 19.8542 15.2315 19.983 12.3281 19.999L11 20.001H9L7.67188 19.999C4.8719 19.9836 3.31033 19.8635 2.2832 18.9355L2.17188 18.8291C1.0003 17.6575 1 15.7722 1 12.001V10.0303C1 8.30264 1.00033 7.38472 1.31152 6.6123L1.37793 6.45898C1.66129 5.85425 2.13019 5.37114 2.94434 4.66992L3.87988 3.88281L4.87305 3.05566C7.31755 1.01945 8.54046 0.00118765 9.98633 0L10.2549 0.0117188ZM9.9873 1.40039C9.63335 1.40068 9.23104 1.51187 8.56152 1.94238C7.85931 2.39394 7.01908 3.09099 5.76953 4.13184L4.77539 4.95898C3.2593 6.22186 2.86016 6.59474 2.64551 7.05273C2.43087 7.51087 2.40039 8.05647 2.40039 10.0303V12.001C2.40039 13.9259 2.40324 15.2289 2.53418 16.2031C2.65975 17.1371 2.87882 17.5575 3.16113 17.8398C3.44344 18.1222 3.86384 18.3412 4.79785 18.4668C5.7721 18.5977 7.07504 18.6006 9 18.6006H11C12.925 18.6006 14.2279 18.5977 15.2021 18.4668C16.1362 18.3412 16.5566 18.1222 16.8389 17.8398C17.1212 17.5575 17.3402 17.1371 17.4658 16.2031C17.5968 15.2289 17.5996 13.9259 17.5996 12.001V10.0381C17.5996 8.0602 17.5689 7.51352 17.3535 7.05469C17.138 6.59602 16.7373 6.22305 15.2158 4.95996L14.209 4.12402C12.9582 3.08563 12.1169 2.39079 11.4141 1.94043C10.7439 1.51104 10.3412 1.40014 9.9873 1.40039Z" fill="#161A33"/>
</g>
<defs>
<clipPath id="clip0_14481_21103">
<rect width="20" height="20" fill="white"/>
</clipPath>
</defs>
</svg>
