<svg width="20" height="20" viewBox="0 0 20 20" fill="none" xmlns="http://www.w3.org/2000/svg">
<path d="M14.2656 11.001C14.7653 10.9675 15.1445 11.4327 14.9395 11.8896C14.0909 13.7806 12.2455 14.9988 9.99414 14.999C7.74269 14.9988 5.90572 13.7807 5.05957 11.8896C4.85519 11.4329 5.23415 10.9686 5.7334 11.002C6.02414 11.0215 6.2816 11.2131 6.41211 11.4736C7.07685 12.8025 8.37195 13.5994 9.99414 13.5996C11.6163 13.5994 12.9194 12.8025 13.5859 11.4736C13.7167 11.2129 13.9746 11.0205 14.2656 11.001Z" fill="#161A33"/>
<path fill-rule="evenodd" clip-rule="evenodd" d="M10 1C14.9706 1 19 5.02944 19 10C19 14.9706 14.9706 19 10 19C5.02944 19 1 14.9706 1 10C1 5.02944 5.02944 1 10 1ZM10 2.40039C5.80264 2.40039 2.40039 5.80264 2.40039 10C2.40039 14.1974 5.80264 17.5996 10 17.5996C14.1974 17.5996 17.5996 14.1974 17.5996 10C17.5996 5.80264 14.1974 2.40039 10 2.40039Z" fill="#161A33"/>
</svg>
