<svg width="20" height="20" viewBox="0 0 20 20" fill="none" xmlns="http://www.w3.org/2000/svg">
<path fill-rule="evenodd" clip-rule="evenodd" d="M10.0026 5.00391C11.7748 5.00383 14.0337 5.05637 15.8451 5.1084C16.4997 5.1272 17.5596 5.16212 18.3128 5.18744C18.699 5.20042 19.0048 5.51773 19.0039 5.90405C19.003 6.296 18.6868 6.61428 18.2948 6.61794L17.7564 6.62297C17.6121 6.62432 17.5399 6.625 17.48 6.63794C17.2472 6.68824 17.0662 6.87132 17.0187 7.10468C17.0065 7.1647 17.0066 7.23687 17.007 7.38121C17.0082 7.83931 17.0095 8.37863 17.0095 8.60352V11.9111C17.0095 12.9869 17.0103 13.9217 16.9499 14.6123C16.8885 15.3143 16.7602 15.9067 16.4722 16.4561C16.0518 17.2577 15.3299 17.9868 14.5322 18.415C13.4774 18.9811 12.2624 18.9746 10.322 18.9941C10.2131 18.9952 10.1064 18.9961 10.0026 18.9961C9.90037 18.9961 9.7952 18.9952 9.68804 18.9941C7.74788 18.9749 6.53296 18.9814 5.47785 18.415C4.68056 17.987 3.95811 17.2583 3.53784 16.457C3.24974 15.9076 3.12163 15.3152 3.06016 14.6133C2.99969 13.9225 3.00057 12.9872 3.00057 11.9111V8.60742C3.00057 8.37942 3.00057 7.82535 3.00057 7.35846C3.00057 7.22086 3.00057 7.15206 2.98933 7.09481C2.94233 6.85547 2.75507 6.66839 2.51563 6.62156C2.45836 6.61036 2.38951 6.61041 2.25182 6.6105L1.72737 6.61085C1.32789 6.61111 1.00391 6.28744 1.00391 5.88808C1.00391 5.49456 1.31811 5.17335 1.71165 5.1651C2.45121 5.14959 3.58297 5.12505 4.16301 5.1084C5.97371 5.05641 8.23165 5.00399 10.0026 5.00391ZM10.0026 6.4043C8.62024 6.40436 7.05497 6.46171 5.56708 6.51139C5.01495 6.52983 4.73889 6.53905 4.57013 6.71349C4.40136 6.88793 4.40136 7.16336 4.40136 7.71421V8.60742C4.40136 8.19952 4.42034 8.88656 4.40136 8.60742V11.9111C4.40136 13.0116 4.4012 13.8756 4.45509 14.4912C4.50799 15.0953 4.60918 15.4839 4.77843 15.8066C5.06875 16.3602 5.58937 16.8859 6.14015 17.1816C6.82094 17.5471 7.61837 17.5731 9.70172 17.5938C9.8047 17.5948 9.90544 17.5957 10.0026 17.5957C10.1012 17.5957 10.2037 17.5948 10.3083 17.5938C12.3917 17.5728 13.1894 17.5469 13.8699 17.1816C14.421 16.8858 14.9412 16.3596 15.2316 15.8057C15.4008 15.4829 15.5021 15.0944 15.555 14.4902C15.6088 13.8747 15.6087 13.0113 15.6087 11.9111V8.60352C15.6087 8.43557 15.5995 8.05479 15.5887 7.66603C15.574 7.13714 15.5667 6.87269 15.399 6.70404C15.2313 6.53539 14.9666 6.52645 14.4372 6.50858C13.1754 6.46597 11.1494 6.40424 10.0026 6.4043Z" fill="#0C1126"/>
<path d="M10.1757 1.00391C11.5592 1.07396 12.7208 1.98319 13.1631 3.23244C13.3091 3.6451 12.9512 4.0237 12.5135 4.01316C12.1669 4.00482 11.8882 3.74571 11.7262 3.43937C11.3995 2.82158 10.7517 2.40056 10.0037 2.40039C9.25535 2.40039 8.6063 2.82162 8.27924 3.4398C8.11729 3.74589 7.83876 4.00482 7.49249 4.01317C7.05506 4.02371 6.69736 3.64537 6.84333 3.23299C7.30382 1.93207 8.54476 1 10.0037 1L10.1757 1.00391Z" fill="#0C1126"/>
<path d="M7.60187 10.3378C7.60187 9.95117 7.91536 9.63777 8.30207 9.63777C8.68878 9.63777 9.00227 9.95117 9.00227 10.3378V13.4816C9.00227 13.8682 8.68878 14.1816 8.30207 14.1816C7.91536 14.1816 7.60187 13.8682 7.60187 13.4816V10.3378Z" fill="#0C1126"/>
<path d="M11.0032 10.3378C11.0032 9.95117 11.3167 9.63777 11.7034 9.63777C12.0902 9.63777 12.4036 9.95117 12.4036 10.3378V13.4816C12.4036 13.8682 12.0902 14.1816 11.7034 14.1816C11.3167 14.1816 11.0032 13.8682 11.0032 13.4816V10.3378Z" fill="#0C1126"/>
</svg>
