<svg width="20" height="20" viewBox="0 0 20 20" fill="none" xmlns="http://www.w3.org/2000/svg">
<path d="M10 2C10.3866 2 10.7002 2.3136 10.7002 2.7002V8.0998C10.7002 8.66549 10.7002 8.94833 10.8759 9.12407C11.0517 9.2998 11.3345 9.2998 11.9002 9.2998H17.2998C17.6864 9.2998 18 9.61342 18 10C18 10.3866 17.6864 10.7002 17.2998 10.7002H11.9002C11.3345 10.7002 11.0517 10.7002 10.8759 10.8759C10.7002 11.0517 10.7002 11.3345 10.7002 11.9002V17.2998C10.7002 17.6864 10.3866 18 10 18C9.61349 17.9999 9.2998 17.6863 9.2998 17.2998V11.9002C9.2998 11.3345 9.2998 11.0517 9.12407 10.8759C8.94833 10.7002 8.66549 10.7002 8.0998 10.7002H2.7002C2.3136 10.7002 2 10.3866 2 10C2.00003 9.61342 2.31361 9.2998 2.7002 9.2998H8.0998C8.66549 9.2998 8.94833 9.2998 9.12407 9.12407C9.2998 8.94833 9.2998 8.66549 9.2998 8.0998V2.7002C9.2998 2.31366 9.61349 2.00011 10 2Z" fill="#161A33"/>
</svg>
