<svg width="20" height="20" viewBox="0 0 20 20" fill="none" xmlns="http://www.w3.org/2000/svg">
<path d="M11.0732 2H8.79003C3.43868 2 0.80633 5.08695 0.515619 9.0752C0.371189 11.0575 1.25799 12.7112 2.52441 14.0264L2.67382 14.1895C4.13805 15.8638 3.00982 17.1688 2.82421 17.9854C2.72676 18.4145 2.82433 19.6378 4.56542 18.5674L4.99902 18.3496C6.90242 17.3931 7.38621 16.7756 9.49706 16.5L12.7129 16.4336C14.4333 16.4336 16.6072 15.9781 18.1465 13.8662L18.293 13.6572L18.5391 13.2666C18.7735 12.8425 18.9812 12.3572 19.1094 12.0283L19.209 11.7598C19.2319 11.6835 19.2535 11.6064 19.2734 11.5303C19.4539 10.839 19.5126 10.1581 19.4932 9.56738L19.4805 9.32031C19.1988 5.45676 16.6442 2.20905 11.5723 2.00977L11.0732 2ZM11.0732 3.40039C13.4758 3.40039 15.1375 4.13354 16.2256 5.17578C17.3241 6.22802 17.9593 7.71182 18.084 9.42188C18.1206 9.9243 18.0836 10.5462 17.9189 11.1768C17.9064 11.2249 17.8929 11.2733 17.8789 11.3213C17.7949 11.5576 17.5701 12.1233 17.3193 12.5791C17.2582 12.6821 17.196 12.7803 17.1328 12.874C15.9491 14.6291 14.2402 15.0342 12.7129 15.0342H12.6846L9.46874 15.1006L9.39159 15.1016L9.31542 15.1113C7.22085 15.3848 6.27713 16.0516 5.00143 16.7597C4.8808 16.8267 4.73685 16.7161 4.75976 16.5801C4.94733 15.4657 4.67554 14.243 3.53222 13.0557C2.44064 11.9221 1.80465 10.6377 1.91113 9.17676C2.03613 7.46178 2.65318 6.05012 3.70898 5.06641C4.76008 4.08712 6.38855 3.40039 8.79003 3.40039H11.0732Z" fill="#161A33"/>
<path d="M12.2998 7.35547C11.7991 7.35551 11.3386 7.52397 10.9695 7.80625C10.8091 7.92888 10.8583 8.16957 11.009 8.30388C11.2952 8.55894 11.4756 8.93016 11.4756 9.34375C11.4756 9.85237 11.2029 10.2965 10.7958 10.5394C10.6223 10.643 10.5282 10.8703 10.6628 11.0211C11.065 11.4714 11.6485 11.7558 12.2998 11.7559C13.5148 11.7559 14.4999 10.7706 14.5 9.55566C14.5 8.34064 13.5148 7.35547 12.2998 7.35547Z" fill="#161A33"/>
<path d="M7.31249 7.35547C6.80436 7.35547 6.33742 7.52875 5.96539 7.81851C5.80806 7.94106 5.85584 8.17797 6.00367 8.31181C6.28502 8.56652 6.46188 8.93427 6.46191 9.34375C6.46191 9.84705 6.19485 10.2871 5.79486 10.5317C5.62455 10.6358 5.53315 10.8599 5.6651 11.0097C6.06763 11.4666 6.65563 11.7559 7.31249 11.7559C8.52732 11.7557 9.51258 10.7705 9.51269 9.55566C9.51269 8.34074 8.52739 7.35563 7.31249 7.35547Z" fill="#161A33"/>
</svg>
