<svg width="20" height="20" viewBox="0 0 20 20" fill="none" xmlns="http://www.w3.org/2000/svg">
<path fill-rule="evenodd" clip-rule="evenodd" d="M9.99609 1C12.8245 1 14.2385 1.00026 15.1172 1.87891L15.2725 2.0498C15.9664 2.90276 15.9949 4.72198 15.9961 7.20703C15.9961 7.22978 15.9957 7.24141 15.9951 7.25098C15.9855 7.40129 15.8661 7.52132 15.7158 7.53125C15.7062 7.53187 15.6944 7.53223 15.6719 7.53223C15.5941 7.53223 15.5544 7.53232 15.5225 7.53027C15.0225 7.498 14.6272 7.10608 14.5898 6.60645C14.5875 6.57463 14.5868 6.53465 14.5859 6.45508C14.5753 5.45642 14.5517 4.28659 14.499 3.89453C14.4101 3.23296 14.2638 3.00402 14.1279 2.86816C13.9921 2.73232 13.7631 2.58603 13.1016 2.49707C12.3996 2.4027 11.4498 2.40039 9.99609 2.40039H9.38184C9.04498 2.40039 8.77649 2.40228 8.55957 2.40625C8.30577 2.4109 8.17871 2.41345 8.09277 2.50098C8.00708 2.5885 8.00684 2.72005 8.00684 2.98242V5.06738C8.00684 5.33042 8.00821 5.59847 7.97852 5.81934C7.94611 6.06028 7.86545 6.34737 7.62598 6.58691C7.38649 6.82641 7.09934 6.90702 6.8584 6.93945C6.63759 6.96914 6.36942 6.96777 6.10645 6.96777H3.98535C3.71985 6.96777 3.58658 6.96759 3.49902 7.05371C3.4116 7.1398 3.40954 7.2689 3.40527 7.52637C3.40166 7.74472 3.40039 8.01159 3.40039 8.34082V13.002C3.40039 14.4557 3.4027 15.4055 3.49707 16.1074C3.58594 16.7682 3.73244 16.9969 3.86816 17.1328C4.00402 17.2687 4.23297 17.4159 4.89453 17.5049C5.59649 17.5993 6.54624 17.6016 8 17.6016H9.99609C11.4498 17.6016 12.3996 17.5993 13.1016 17.5049C13.7631 17.4159 13.9921 17.2687 14.1279 17.1328C14.2144 17.0462 14.3182 16.2189 14.4053 15.459C14.4271 15.2682 14.4378 15.1722 14.4639 15.0859C14.571 14.7322 14.8785 14.4578 15.2422 14.3916C15.3308 14.3755 15.4279 14.376 15.6211 14.376C15.69 14.376 15.7249 14.3761 15.7539 14.3818C15.8744 14.4058 15.9699 14.503 15.9912 14.624C15.9963 14.6531 15.9956 14.6873 15.9941 14.7549C15.9567 16.4583 15.7918 17.4485 15.1172 18.123L14.9463 18.2773C14.1752 18.905 13.0144 18.9888 10.9922 19L9.99609 19.002H8C5.1717 19.002 3.75759 19.0016 2.87891 18.123C2.11011 17.3542 2.01397 16.1755 2.00195 13.998L2 13.002V8.34082C2 7.08894 2.00019 6.46278 2.2373 5.90234C2.47443 5.34196 2.92383 4.90585 3.82227 4.03418L5.2041 2.69336C6.06565 1.85749 6.49705 1.43946 7.03906 1.21973C7.58105 1.00014 8.18146 1 9.38184 1H9.99609ZM6.45996 3.48926C6.39632 3.48718 6.32369 3.55758 6.17871 3.69824L4.79688 5.03906C4.79123 5.04454 4.78586 5.05024 4.78027 5.05566C4.55849 5.27101 4.44707 5.37889 4.48535 5.47266C4.52376 5.56621 4.6791 5.56588 4.98926 5.56445L5.40723 5.5625C5.96832 5.55992 6.24922 5.55845 6.42383 5.38379C6.59841 5.20913 6.59915 4.92825 6.60156 4.36719L6.60352 3.88086C6.60439 3.67818 6.60498 3.57676 6.55957 3.53223C6.53292 3.50627 6.49714 3.4905 6.45996 3.48926Z" fill="#161A33"/>
<path d="M12.1592 7.45508C12.7115 7.45508 13.1592 7.90279 13.1592 8.45508V13.4512C13.1592 14.0035 12.7115 14.4512 12.1592 14.4512H12.0596C11.894 14.4511 11.7599 14.3169 11.7598 14.1514V7.75488C11.7599 7.58932 11.894 7.45513 12.0596 7.45508H12.1592Z" fill="#161A33"/>
<path d="M17.7598 7.45508C18.312 7.45508 18.7598 7.90279 18.7598 8.45508V13.4512C18.7598 14.0035 18.312 14.4512 17.7598 14.4512H17.6602C17.4945 14.4512 17.3595 14.317 17.3594 14.1514V7.75488C17.3595 7.58929 17.4945 7.45508 17.6602 7.45508H17.7598Z" fill="#161A33"/>
<path d="M9.35938 8.95312C9.91166 8.95312 10.3594 9.40084 10.3594 9.95312V11.9531C10.3594 12.5054 9.91166 12.9531 9.35938 12.9531H9.25977C9.09415 12.9531 8.95909 12.8189 8.95898 12.6533V9.25293C8.95909 9.08733 9.09415 8.95312 9.25977 8.95312H9.35938Z" fill="#161A33"/>
<path d="M14.959 8.95312C15.5113 8.95312 15.959 9.40084 15.959 9.95312V11.9531C15.959 12.5054 15.5113 12.9531 14.959 12.9531H14.8594C14.6938 12.9531 14.5597 12.8189 14.5596 12.6533V9.25293C14.5597 9.08737 14.6938 8.95318 14.8594 8.95312H14.959Z" fill="#161A33"/>
</svg>
