<svg width="20" height="20" viewBox="0 0 20 20" fill="none" xmlns="http://www.w3.org/2000/svg">
<path d="M17.6006 10.2998V9.7002C17.6006 7.79479 17.5997 6.43607 17.461 5.4043C17.325 4.39268 17.0679 3.80123 16.6338 3.36719C16.1998 2.93314 15.6083 2.67605 14.5967 2.54004C13.5649 2.40132 12.2062 2.40039 10.3008 2.40039H9.70023C7.79487 2.40039 6.43615 2.40134 5.40433 2.54004C4.39256 2.67608 3.8003 2.93306 3.36624 3.36719C2.93226 3.8013 2.67594 4.39358 2.54007 5.40527C2.40154 6.43713 2.40013 7.79581 2.40042 9.70117V10.3008C2.40072 12.2057 2.40222 13.5641 2.54105 14.5957C2.67718 15.6072 2.93418 16.1988 3.3682 16.6328C3.80222 17.0668 4.39387 17.323 5.4053 17.459C6.43688 17.5977 7.79527 17.5996 9.70023 17.5996H10.3008C12.2062 17.5996 13.5649 17.5977 14.5967 17.459C15.6082 17.323 16.1998 17.0668 16.6338 16.6328C17.0678 16.1988 17.3249 15.6071 17.461 14.5957C17.5997 13.564 17.6006 12.2051 17.6006 10.2998ZM19.001 10.2998C19.001 12.1655 19.0019 13.6355 18.8477 14.7822C18.6908 15.9489 18.3615 16.8856 17.6241 17.623C16.8866 18.3605 15.95 18.6898 14.7832 18.8467C13.6365 19.0009 12.1666 19 10.3008 19H9.70023C7.83483 19 6.36531 19.0008 5.21878 18.8467C4.05208 18.6898 3.11545 18.3604 2.37796 17.623C1.64054 16.8857 1.31135 15.9489 1.15433 14.7822C1.00005 13.6357 1.0013 12.1662 1.00101 10.3008L1.00003 9.70117C0.999744 7.83537 0.998388 6.36555 1.15238 5.21875C1.3091 4.05173 1.63849 3.11461 2.37601 2.37695C3.11356 1.63929 4.05079 1.31023 5.2178 1.15332C6.3646 0.999155 7.83438 1 9.70023 1H10.3008C12.1666 1 13.6365 0.999145 14.7832 1.15332C15.9501 1.31021 16.8866 1.63945 17.6241 2.37695C18.3616 3.11445 18.6908 4.05095 18.8477 5.21777C19.0019 6.36451 19.001 7.83437 19.001 9.7002V10.2998Z" fill="#161A33"/>
<path d="M9.15088 14.5C9.15088 14.7761 9.37474 15 9.65088 15H10.3509C10.627 15 10.8509 14.7761 10.8509 14.5V8.3C10.8509 8.13431 10.7166 8 10.5509 8H10.1509C9.59859 8 9.15088 8.44772 9.15088 9V14.5Z" fill="#161A33"/>
<path d="M12.6616 14.5C12.6616 14.7761 12.8855 15 13.1616 15H13.8616C14.1378 15 14.3616 14.7761 14.3616 14.5V5.3C14.3616 5.13431 14.2273 5 14.0616 5H13.6616C13.1093 5 12.6616 5.44772 12.6616 6V14.5Z" fill="#161A33"/>
<path d="M5.63965 14.5C5.63965 14.7761 5.86351 15 6.13965 15H6.83965C7.11579 15 7.33965 14.7761 7.33965 14.5V10.3C7.33965 10.1343 7.20533 10 7.03965 10H6.63965C6.08736 10 5.63965 10.4477 5.63965 11V14.5Z" fill="#161A33"/>
</svg>
