<svg width="20" height="20" viewBox="0 0 20 20" fill="none" xmlns="http://www.w3.org/2000/svg">
<g clip-path="url(#clip0_14481_18913)">
<path d="M15.4629 8.83594C15.8292 8.49149 16.3947 8.47283 16.7832 8.79199C16.8071 8.81166 16.8344 8.83707 16.8877 8.88672C16.9035 8.90146 16.9116 8.90931 16.918 8.91602C17.022 9.02606 17.0281 9.1967 16.9316 9.31348C16.9257 9.32063 16.9182 9.3288 16.9033 9.34473L12.6406 13.8926C11.9467 14.6329 11.5991 15.0034 11.1611 15C10.7232 14.9963 10.3819 14.6203 9.7002 13.8691L8.09473 12.1006C8.07996 12.0843 8.07228 12.0757 8.06641 12.0684C7.97196 11.95 7.98104 11.7792 8.08691 11.6709C8.09351 11.6642 8.10174 11.6564 8.11816 11.6416C8.17349 11.5918 8.20182 11.5665 8.22656 11.5469C8.61945 11.2361 9.18176 11.2641 9.54199 11.6123C9.5646 11.6342 9.58974 11.6621 9.63965 11.7168L10.3018 12.4424C10.7102 12.8904 10.9148 13.115 11.1768 13.1172C11.4389 13.1189 11.6472 12.8974 12.0625 12.4551L15.3652 8.9375C15.4153 8.88414 15.4403 8.85721 15.4629 8.83594Z" fill="#161A33"/>
<path fill-rule="evenodd" clip-rule="evenodd" d="M12 4C15.7712 4 17.6566 4.0003 18.8281 5.17188L18.9346 5.2832C20 6.46248 20 8.34627 20 12C20 15.7712 19.9997 17.6566 18.8281 18.8281L18.7168 18.9346C17.5375 20 15.6537 20 12 20C8.22876 20 6.34345 19.9997 5.17188 18.8281C4.0003 17.6566 4 15.7712 4 12C4 8.22876 4.0003 6.34345 5.17188 5.17188C6.34345 4.0003 8.22876 4 12 4ZM12 5.40039C10.075 5.40039 8.7721 5.40324 7.79785 5.53418C6.86384 5.65975 6.44344 5.87882 6.16113 6.16113C5.87882 6.44344 5.65975 6.86384 5.53418 7.79785C5.40324 8.7721 5.40039 10.075 5.40039 12C5.40039 13.925 5.40324 15.2279 5.53418 16.2021C5.65975 17.1362 5.87882 17.5566 6.16113 17.8389C6.44344 18.1212 6.86384 18.3402 7.79785 18.4658C8.7721 18.5968 10.075 18.5996 12 18.5996C13.925 18.5996 15.2279 18.5968 16.2021 18.4658C17.1362 18.3402 17.5566 18.1212 17.8389 17.8389C18.1212 17.5566 18.3402 17.1362 18.4658 16.2021C18.5968 15.2279 18.5996 13.925 18.5996 12C18.5996 10.075 18.5968 8.7721 18.4658 7.79785C18.3402 6.86384 18.1212 6.44344 17.8389 6.16113C17.5566 5.87882 17.1362 5.65975 16.2021 5.53418C15.2279 5.40324 13.925 5.40039 12 5.40039Z" fill="#161A33"/>
<path d="M8 0C11.7712 0 13.6566 0.000302076 14.8281 1.17188L14.9346 1.2832C15.2035 1.58083 15.4037 1.92357 15.5537 2.32812C15.6512 2.59097 15.7004 2.72267 15.6367 2.8418C15.6265 2.86077 15.6109 2.8823 15.5967 2.89844C15.5072 2.99957 15.3541 3 15.0479 3C14.7354 3 14.5788 2.99998 14.4561 2.94141C14.4305 2.92921 14.4154 2.92049 14.3916 2.90527C14.277 2.83196 14.1735 2.66624 13.9678 2.33496C13.9229 2.26275 13.8787 2.20101 13.8389 2.16113C13.5566 1.87882 13.1362 1.65975 12.2021 1.53418C11.2279 1.40324 9.92496 1.40039 8 1.40039C6.07504 1.40039 4.7721 1.40324 3.79785 1.53418C2.86384 1.65975 2.44344 1.87882 2.16113 2.16113C1.87882 2.44344 1.65975 2.86384 1.53418 3.79785C1.40324 4.7721 1.40039 6.07504 1.40039 8C1.40039 9.92496 1.40324 11.2279 1.53418 12.2021C1.65975 13.1362 1.87882 13.5566 2.16113 13.8389C2.20102 13.8788 2.26272 13.923 2.33496 13.9678C2.6655 14.1727 2.83096 14.2757 2.9043 14.3896C2.92009 14.4142 2.92887 14.4297 2.94141 14.4561C2.99967 14.5784 3 14.7343 3 15.0459C3 15.3509 2.99956 15.5033 2.89941 15.5928C2.88281 15.6076 2.86045 15.6233 2.84082 15.6338C2.72222 15.6968 2.59099 15.6484 2.3291 15.5518C1.87271 15.3833 1.49493 15.1512 1.17188 14.8281C0.000302076 13.6566 0 11.7712 0 8C0 4.22876 0.000302076 2.34345 1.17188 1.17188C2.34345 0.000302076 4.22876 0 8 0Z" fill="#161A33"/>
</g>
<defs>
<clipPath id="clip0_14481_18913">
<rect width="20" height="20" fill="white"/>
</clipPath>
</defs>
</svg>
