<svg preserveAspectRatio="none" width="20" height="20" overflow="visible" style="display: block;" viewBox="0 0 18 18" fill="none" xmlns="http://www.w3.org/2000/svg">
<path id="vector" fill-rule="evenodd" clip-rule="evenodd" d="M7.5 0C11.6421 0 15 3.35786 15 7.5C15 8.99219 14.5638 10.3823 13.8125 11.5505C13.5331 11.9847 13.5536 12.5643 13.9187 12.9295L17.7949 16.8057C18.0679 17.079 18.0679 17.5217 17.7949 17.7949C17.5216 18.0683 17.0781 18.0683 16.8047 17.7949L12.9284 13.9187C12.5633 13.5536 11.9838 13.5331 11.5495 13.8124C10.3816 14.5636 8.99195 15 7.5 15C3.35786 15 0 11.6421 0 7.5C0 3.35786 3.35786 0 7.5 0ZM7.5 1.40039C4.13106 1.40039 1.40039 4.13106 1.40039 7.5C1.40039 10.8689 4.13106 13.5996 7.5 13.5996C10.8689 13.5996 13.5996 10.8689 13.5996 7.5C13.5996 4.13106 10.8689 1.40039 7.5 1.40039Z" fill="var(--fill-0, #0C1126)"/>
</svg>
