<svg width="20" height="20" viewBox="0 0 20 20" fill="none" xmlns="http://www.w3.org/2000/svg">
<path d="M18.0635 17.6021C18.568 17.6329 18.9705 18.035 19.001 18.5396C19.0028 18.5697 19.0029 18.6053 19.0029 18.6764C19.0029 18.6978 19.0025 18.7093 19.002 18.7184C18.9926 18.8696 18.872 18.9904 18.7207 18.9996H1.7002C1.31375 18.9996 1.00025 18.6868 1 18.3004C1 17.9138 1.3136 17.6002 1.7002 17.6002L18.0635 17.6021Z" fill="#503AE0"/>
<path fill-rule="evenodd" clip-rule="evenodd" d="M9.45312 2.19687C11.0516 0.598393 13.6446 0.598488 15.2432 2.19687C16.8415 3.79539 16.8407 6.38743 15.2422 7.98593L9.04785 14.1803C8.2566 14.9715 7.73674 15.5077 7.06055 15.8004C6.38426 16.0929 5.63807 16.1052 4.51953 16.1402L3.01367 16.1871C2.71991 16.1963 2.42522 16.2073 2.18457 16.1812C1.92409 16.153 1.60704 16.0712 1.35254 15.8023C1.09853 15.5335 1.03425 15.2132 1.02051 14.9517C1.00789 14.7099 1.03499 14.4156 1.06055 14.1226L1.18652 12.6822C1.27611 11.6552 1.3266 10.9704 1.61426 10.3531C1.90207 9.7358 2.39389 9.25611 3.12305 8.52694L9.45312 2.19687ZM14.2529 3.1871C13.2011 2.13541 11.4951 2.13535 10.4434 3.1871L4.11328 9.51718C3.3141 10.3164 3.04217 10.6023 2.88281 10.9439C2.72352 11.2857 2.67925 11.6778 2.58105 12.8033L2.5101 13.6842C2.46845 14.2013 2.44762 14.4598 2.60063 14.6216C2.75364 14.7834 3.01295 14.777 3.53158 14.7641L4.47559 14.7408C5.7023 14.7024 6.12973 14.677 6.50391 14.5152C6.8782 14.3533 7.18937 14.0593 8.05762 13.191L14.2529 6.99667C15.3047 5.94491 15.3046 4.2389 14.2529 3.1871Z" fill="#503AE0"/>
</svg>
