<svg width="24" height="24" viewBox="0 0 24 24" fill="none" xmlns="http://www.w3.org/2000/svg">
<g opacity="0.3">
<path fill-rule="evenodd" clip-rule="evenodd" d="M10.8305 1.69162C11.3367 0.769462 12.6633 0.769461 13.1695 1.69162L15.8689 6.60851C16.0844 7.00093 16.4638 7.27661 16.9036 7.36024L22.4145 8.40807C23.4478 8.60454 23.8574 9.86231 23.1374 10.6281L19.2939 14.716C18.9873 15.0421 18.8423 15.4882 18.8987 15.9323L19.6052 21.4983C19.7376 22.5411 18.6647 23.3189 17.7128 22.8703L12.6395 20.4794C12.2345 20.2885 11.7655 20.2885 11.3605 20.4794L6.28722 22.8703C5.33526 23.3189 4.26241 22.5411 4.39478 21.4983L5.10131 15.9323C5.15769 15.4882 5.01274 15.0421 4.70608 14.716L0.862612 10.6281C0.142641 9.86231 0.552205 8.60454 1.5855 8.40807L7.09639 7.36024C7.53619 7.27662 7.91564 7.00093 8.13108 6.60851L10.8305 1.69162Z" fill="#9399BD"/>
</g>
</svg>
