<svg width="20" height="20" viewBox="0 0 20 20" fill="none" xmlns="http://www.w3.org/2000/svg">
<path fill-rule="evenodd" clip-rule="evenodd" d="M10 1C14.9706 1 19 5.02944 19 10C19 14.9706 14.9706 19 10 19C5.02944 19 1 14.9706 1 10C1 5.02944 5.02944 1 10 1ZM14.7939 6.48535C14.4003 6.15853 13.8234 6.18189 13.457 6.53906C13.4367 6.5589 13.4136 6.58412 13.3682 6.63379L9.89941 10.4238C9.47983 10.8823 9.26979 11.1113 9.00293 11.1094C8.73618 11.1073 8.52977 10.8755 8.11719 10.4111L7.21191 9.39258C7.16725 9.34231 7.14504 9.317 7.125 9.29688C6.76448 8.9348 6.18854 8.90285 5.79004 9.22266C5.76798 9.24038 5.74302 9.2629 5.69336 9.30762C5.67851 9.32099 5.671 9.32797 5.66504 9.33398C5.55795 9.44204 5.54873 9.61344 5.64355 9.73242C5.64879 9.73897 5.65584 9.74607 5.66895 9.76074L7.52637 11.8398C8.21504 12.6105 8.55983 12.9956 9.00391 12.998C9.4479 13.0003 9.79693 12.6185 10.4941 11.8555L14.9082 7.02441C14.9214 7.01003 14.9283 7.00256 14.9336 6.99609C15.0291 6.87864 15.0218 6.70792 14.917 6.59863C14.9112 6.59265 14.9039 6.58552 14.8896 6.57227C14.8405 6.52651 14.8158 6.50348 14.7939 6.48535Z" fill="#0DB56C"/>
</svg>
