<svg width="144" height="40" viewBox="0 0 144 40" fill="none" xmlns="http://www.w3.org/2000/svg">
<path fill-rule="evenodd" clip-rule="evenodd" d="M47.341 7.28711L51.3718 16.6573H49.5104L48.5726 14.4352H44.0801L43.1563 16.6573H41.3789L45.3537 7.28711H47.341ZM44.7099 12.8959H47.9289L46.3194 9.05407L44.7099 12.8959Z" fill="#3D4559"/>
<path d="M55.2671 16.8046C56.4008 16.8046 57.2825 16.3628 57.5904 15.988V14.3817C57.2405 14.9707 56.4708 15.4392 55.3091 15.4392C53.9935 15.4392 53.2098 14.7967 53.2098 13.4179V13.2171C53.2098 11.8651 53.9376 11.1824 55.2811 11.1824C56.3028 11.1958 57.0446 11.6777 57.5204 12.3872V10.4328C57.0586 10.0982 56.2188 9.83045 55.2811 9.81707C53.0558 9.83045 51.5443 10.9817 51.5443 13.284C51.5443 15.6266 53.0278 16.8046 55.2671 16.8046Z" fill="#3D4559"/>
<path d="M64.4789 15.988C64.171 16.3628 63.2893 16.8046 62.1556 16.8046C59.9163 16.8046 58.4328 15.6266 58.4328 13.284C58.4328 10.9817 59.9443 9.83045 62.1696 9.81707C63.1073 9.83045 63.947 10.0982 64.4089 10.4328V12.3872C63.9331 11.6777 63.1913 11.1958 62.1696 11.1824C60.826 11.1824 60.0983 11.8651 60.0983 13.2171V13.4179C60.0983 14.7967 60.882 15.4392 62.1976 15.4392C63.3592 15.4392 64.129 14.9707 64.4789 14.3817V15.988Z" fill="#3D4559"/>
<path d="M79.8074 15.988C79.4994 16.3628 78.6177 16.8046 77.4841 16.8046C75.2448 16.8046 73.7612 15.6266 73.7612 13.284C73.7612 10.9817 75.2728 9.83045 77.4981 9.81707C78.4358 9.83045 79.2755 10.0982 79.7374 10.4328V12.3872C79.2615 11.6777 78.5198 11.1958 77.4981 11.1824C76.1545 11.1824 75.4267 11.8651 75.4267 13.2171V13.4179C75.4267 14.7967 76.2105 15.4392 77.5261 15.4392C78.6877 15.4392 79.4575 14.9707 79.8074 14.3817V15.988Z" fill="#3D4559"/>
<path fill-rule="evenodd" clip-rule="evenodd" d="M93.3574 15.988C93.0215 16.3628 92.0558 16.8046 90.7822 16.7912C88.4729 16.8046 87.1014 15.5864 87.1014 13.284C87.1014 11.062 88.5569 9.81707 90.6702 9.81707C92.6996 9.83045 93.9172 11.0218 93.9172 13.1234V13.7659H88.7248C88.8508 14.877 89.5646 15.4392 90.8382 15.4392C92.1258 15.4392 92.9795 14.9707 93.3574 14.3817V15.988ZM90.6282 11.1824C89.5786 11.1824 88.9208 11.6911 88.7528 12.6549H92.2797C92.2377 11.7447 91.6219 11.1824 90.6282 11.1824Z" fill="#3D4559"/>
<path d="M99.803 13.9534V16.6573H101.441V9.96432H99.803V12.5746H96.64V9.96432H95.0025V16.6573H96.64V13.9534H99.803Z" fill="#3D4559"/>
<path d="M104.737 11.3431V16.6573H106.361V11.3431H108.628V9.96432H102.498V11.3431H104.737Z" fill="#3D4559"/>
<path d="M82.8987 11.3431V16.6573H84.5222V11.3431H86.7895V9.96432H80.6594V11.3431H82.8987Z" fill="#3D4559"/>
<path d="M65.9888 9.96432V16.6573H67.5423L70.9012 12.0659V16.6573H72.5247V9.96432H70.9712L67.6123 14.5022V9.96432H65.9888Z" fill="#3D4559"/>
<path fill-rule="evenodd" clip-rule="evenodd" d="M140.409 27.8347V30.0434H142.047V23.3503H139.066C136.896 23.3503 135.917 24.1 135.917 25.7732C135.917 26.6433 136.364 27.2992 137.19 27.6205L135.567 30.0434H137.372L138.786 27.8347H140.409ZM137.554 25.7732C137.554 24.9968 138.016 24.7291 139.108 24.7291H140.409V26.6299H138.8C137.946 26.6299 137.568 26.322 137.554 25.7732Z" fill="#3D4559"/>
<path d="M132.949 30.0434V24.7291H130.682L130.64 25.5724C130.458 29.7489 129.394 30.1237 128.303 30.1237C128.037 30.1237 127.757 30.0969 127.617 30.0567V28.437C127.743 28.4772 127.869 28.4906 127.981 28.4906C128.583 28.4906 129.073 28.3032 129.171 24.8094L129.227 23.3503H134.573V30.0434H132.949Z" fill="#3D4559"/>
<path fill-rule="evenodd" clip-rule="evenodd" d="M123.911 30.1772C125.185 30.1906 126.151 29.7489 126.486 29.3741V27.7677C126.109 28.3567 125.255 28.8252 123.967 28.8252C122.694 28.8252 121.98 28.263 121.854 27.152H127.046V26.5094C127.046 24.4078 125.829 23.2165 123.799 23.2031C121.686 23.2031 120.23 24.448 120.23 26.6701C120.23 28.9725 121.602 30.1906 123.911 30.1772ZM121.882 26.0409C122.05 25.0771 122.708 24.5685 123.757 24.5685C124.751 24.5685 125.367 25.1307 125.409 26.0409H121.882Z" fill="#3D4559"/>
<path d="M115.888 30.0434V24.7291H113.649V23.3503H119.779V24.7291H117.511V30.0434H115.888Z" fill="#3D4559"/>
<path fill-rule="evenodd" clip-rule="evenodd" d="M107.267 23.8189V25.7732C107.743 25.0638 108.485 24.5819 109.773 24.5819C110.71 24.5819 111.186 24.8764 111.186 25.8268V26.1213H109.605C107.883 26.1213 106.721 26.5496 106.721 28.0756C106.721 29.3874 107.561 30.1504 108.975 30.1504C110.094 30.1504 110.948 29.615 111.284 28.8386V30.0434H112.824V25.626C112.824 23.8858 111.816 23.2165 109.773 23.2165C108.569 23.2165 107.729 23.4842 107.267 23.8189ZM111.186 27.6874C111.116 28.1425 110.598 28.7449 109.493 28.7449C108.765 28.7449 108.373 28.4237 108.373 27.915C108.373 27.3126 108.835 27.1386 109.801 27.1386H111.186V27.6874Z" fill="#3D4559"/>
<path fill-rule="evenodd" clip-rule="evenodd" d="M99.6844 30.0434V23.3503H103.211C104.877 23.3503 105.535 23.8992 105.535 24.9031C105.535 25.7063 105.087 26.2551 104.331 26.4291C105.227 26.5362 105.884 26.9244 105.884 28.0622C105.884 29.3473 105.003 30.0434 103.169 30.0434H99.6844ZM101.322 28.7449H103.015C103.883 28.7449 104.261 28.4906 104.261 27.9551C104.261 27.3662 103.869 27.1787 103.113 27.1787H101.322V28.7449ZM101.322 26.0543H102.819C103.463 26.0543 103.897 25.8535 103.897 25.2913C103.897 24.796 103.533 24.6488 102.833 24.6488L101.322 24.6622V26.0543Z" fill="#3D4559"/>
<path fill-rule="evenodd" clip-rule="evenodd" d="M92.5194 23.8189V25.7732C92.9953 25.0638 93.7371 24.5819 95.0247 24.5819C95.9624 24.5819 96.4382 24.8764 96.4382 25.8268V26.1213H94.8567C93.1352 26.1213 91.9736 26.5496 91.9736 28.0756C91.9736 29.3874 92.8133 30.1504 94.2269 30.1504C95.3465 30.1504 96.2003 29.615 96.5362 28.8386V30.0434H98.0757V25.626C98.0757 23.8858 97.068 23.2165 95.0247 23.2165C93.821 23.2165 92.9813 23.4842 92.5194 23.8189ZM96.4382 27.6874C96.3682 28.1425 95.8504 28.7449 94.7447 28.7449C94.017 28.7449 93.6251 28.4237 93.6251 27.915C93.6251 27.3126 94.0869 27.1386 95.0526 27.1386H96.4382V27.6874Z" fill="#3D4559"/>
<path fill-rule="evenodd" clip-rule="evenodd" d="M83.1622 28.6244H83.9739C84.3658 27.6606 84.6037 26.3354 84.6037 24.1133V23.3503H89.978V28.6244H91.0417V31.7835H89.5582V30.0434H84.6457V31.7835H83.1622V28.6244ZM86.1292 24.8897C86.0873 26.4291 85.9473 27.5803 85.5554 28.6244H88.3405V24.7291H86.1292V24.8897Z" fill="#3D4559"/>
<path fill-rule="evenodd" clip-rule="evenodd" d="M75.3379 26.6701C75.3379 29.0126 76.7514 30.1906 78.9347 30.1906C81.104 30.1772 82.5736 29.0394 82.5736 26.7236C82.5736 24.3945 81.16 23.2165 78.9907 23.2031C76.8074 23.2031 75.3379 24.3543 75.3379 26.6701ZM77.0033 26.7102V26.6701C77.0033 25.2645 77.6891 24.5819 78.9347 24.5685C80.1663 24.5685 80.9081 25.211 80.9081 26.6835V26.7236C80.9081 28.1425 80.2083 28.8252 78.9627 28.8252C77.7311 28.8252 77.0033 28.1827 77.0033 26.7102Z" fill="#3D4559"/>
<path d="M72.6122 30.0434V24.7291H69.5612V30.0434H67.9237V23.3503H74.2497V30.0434H72.6122Z" fill="#3D4559"/>
<path fill-rule="evenodd" clip-rule="evenodd" d="M63.2835 30.1772C64.5571 30.1906 65.5228 29.7489 65.8587 29.3741V27.7677C65.4808 28.3567 64.6271 28.8252 63.3395 28.8252C62.0659 28.8252 61.3521 28.263 61.2261 27.152H66.4185V26.5094C66.4185 24.4078 65.2009 23.2165 63.1715 23.2031C61.0582 23.2031 59.6026 24.448 59.6026 26.6701C59.6026 28.9725 60.9742 30.1906 63.2835 30.1772ZM61.2541 26.0409C61.4221 25.0771 62.0799 24.5685 63.1295 24.5685C64.1232 24.5685 64.739 25.1307 64.781 26.0409H61.2541Z" fill="#3D4559"/>
<path fill-rule="evenodd" clip-rule="evenodd" d="M51.6899 32.6269V23.3503H53.2294V24.7425C53.4813 23.9929 54.2231 23.2165 55.7066 23.2165C57.4841 23.2165 58.7297 24.2071 58.7297 26.5496C58.7297 29.1867 57.4841 30.1906 55.5667 30.1906C54.447 30.1906 53.6772 29.6552 53.3274 29.026V32.6269H51.6899ZM53.3274 26.4157V26.9244C53.3274 28.1292 54.0551 28.8118 55.2028 28.8118C56.5184 28.8118 57.0922 28.1961 57.0922 26.6165C57.0922 25.1441 56.3504 24.6086 55.2308 24.6086C53.9432 24.6086 53.3553 25.2913 53.3274 26.4157Z" fill="#3D4559"/>
<path d="M48.5172 22.2125V30.0434H50.2667V20.6731H41.5474V30.0434H43.2969V22.2125H48.5172Z" fill="#3D4559"/>
<path fill-rule="evenodd" clip-rule="evenodd" d="M33.6651 15.9332C34.6873 15.5778 35.8118 16.0969 36.1767 17.0928L37.3006 20.1602C37.6654 21.1561 37.1325 22.2515 36.1102 22.607C35.0879 22.9624 33.9634 22.4432 33.5985 21.4474L32.4747 18.3799C32.1098 17.3841 32.6428 16.2886 33.6651 15.9332Z" fill="url(#paint0_linear_14139_24972)"/>
<path fill-rule="evenodd" clip-rule="evenodd" d="M30.7018 12.4482C32.0099 12.2909 33.2013 13.1963 33.3628 14.4706L34.5748 24.0345C34.7363 25.3088 33.8068 26.4693 32.4987 26.6266C31.1906 26.784 29.9993 25.8785 29.8378 24.6042L28.6257 15.0403C28.4642 13.7661 29.3937 12.6055 30.7018 12.4482Z" fill="url(#paint1_linear_14139_24972)"/>
<path fill-rule="evenodd" clip-rule="evenodd" d="M29.5537 9.61798C31.0706 9.93102 32.0399 11.3827 31.7185 12.8605L28.5712 27.3339C28.2499 28.8117 26.7596 29.7558 25.2426 29.4428C23.7257 29.1298 22.7564 27.678 23.0778 26.2003L26.2251 11.7269C26.5464 10.2491 28.0367 9.30494 29.5537 9.61798Z" fill="url(#paint2_linear_14139_24972)"/>
<path fill-rule="evenodd" clip-rule="evenodd" d="M23.5223 4.11567C25.2245 4.22219 26.5158 5.65277 26.4064 7.31095L25.194 25.6966C25.0846 27.3548 23.6161 28.6126 21.9139 28.5061C20.2117 28.3996 18.9205 26.969 19.0298 25.3108L20.2423 6.9252C20.3516 5.26702 21.8202 4.00915 23.5223 4.11567Z" fill="url(#paint3_linear_14139_24972)"/>
<path fill-rule="evenodd" clip-rule="evenodd" d="M14.3526 1.90656C16.1922 1.63378 17.9104 2.86536 18.1904 4.65738L21.93 28.589C22.21 30.381 20.9457 32.0549 19.1061 32.3276C17.2666 32.6004 15.5483 31.3688 15.2683 29.5768L11.5288 5.6452C11.2488 3.85318 12.513 2.17934 14.3526 1.90656Z" fill="url(#paint4_linear_14139_24972)"/>
<path fill-rule="evenodd" clip-rule="evenodd" d="M3.55198 1.14066C5.53902 0.499071 7.68375 1.54814 8.34236 3.48382L18.7617 34.1067C19.4203 36.0424 18.3434 38.1317 16.3564 38.7733C14.3693 39.4149 12.2246 38.3658 11.566 36.4301L1.14664 5.80721C0.488025 3.87153 1.56493 1.78224 3.55198 1.14066Z" fill="url(#paint5_linear_14139_24972)"/>
<defs>
<linearGradient id="paint0_linear_14139_24972" x1="18.387" y1="9.1439" x2="10.3868" y2="32.8146" gradientUnits="userSpaceOnUse">
<stop offset="0.245865" stop-color="#0F3FBB"/>
<stop offset="0.992495" stop-color="#2153D3"/>
</linearGradient>
<linearGradient id="paint1_linear_14139_24972" x1="19.1843" y1="0.952148" x2="19.1843" y2="38.9618" gradientUnits="userSpaceOnUse">
<stop offset="0.231437" stop-color="#1151C0"/>
<stop offset="0.658964" stop-color="#1B5BCA"/>
</linearGradient>
<linearGradient id="paint2_linear_14139_24972" x1="19.1843" y1="0.952148" x2="19.1843" y2="38.9618" gradientUnits="userSpaceOnUse">
<stop stop-color="#1175D9"/>
<stop offset="0.664708" stop-color="#116AC3"/>
</linearGradient>
<linearGradient id="paint3_linear_14139_24972" x1="19.1843" y1="0.952148" x2="19.1843" y2="38.9618" gradientUnits="userSpaceOnUse">
<stop stop-color="#19A0ED"/>
<stop offset="0.626436" stop-color="#108ED7"/>
</linearGradient>
<linearGradient id="paint4_linear_14139_24972" x1="19.1843" y1="0.952148" x2="19.9482" y2="47.4429" gradientUnits="userSpaceOnUse">
<stop stop-color="#1CD7F0"/>
<stop offset="0.491849" stop-color="#10BED5"/>
<stop offset="1" stop-color="#02B3CA"/>
</linearGradient>
<linearGradient id="paint5_linear_14139_24972" x1="6.07346" y1="0.629549" x2="17.353" y2="40.5432" gradientUnits="userSpaceOnUse">
<stop stop-color="#1DF990"/>
<stop offset="0.96016" stop-color="#0BCF9F"/>
</linearGradient>
</defs>
</svg>
